<svg width="150" height="169" viewBox="0 0 150 169" fill="none" xmlns="http://www.w3.org/2000/svg">
<path d="M90.4516 154.855H107.846V142.43C116.129 140.939 123.253 137.709 129.217 132.739C135.18 127.769 138.162 120.397 138.162 110.623C138.162 103.665 136.174 97.2874 132.199 91.4892C128.223 85.691 120.271 80.6383 108.343 76.3311C98.4034 73.0178 91.5284 70.1188 87.7182 67.6338C83.9079 65.1489 82.0028 61.7528 82.0028 57.4456C82.0028 53.1384 83.5352 49.7423 86.6 47.2574C89.6647 44.7724 94.0962 43.5299 99.8944 43.5299C105.196 43.5299 109.337 44.8138 112.319 47.3816C115.301 49.9494 117.455 53.1384 118.78 56.9486L134.683 50.4878C132.861 44.6896 129.507 39.6369 124.619 35.3297C119.732 31.0224 114.307 28.6203 108.343 28.1234V15.6987H90.9486V28.1234C82.6655 29.9456 76.2047 33.5902 71.5661 39.0571C66.9276 44.5239 64.6083 50.6534 64.6083 57.4456C64.6083 65.2317 66.8861 71.5269 71.4419 76.3311C75.9976 81.1353 83.1625 85.2768 92.9365 88.7558C103.373 92.566 110.621 95.9621 114.68 98.944C118.738 101.926 120.768 105.819 120.768 110.623C120.768 116.09 118.821 120.107 114.928 122.675C111.035 125.243 106.355 126.527 100.888 126.527C95.4215 126.527 90.5759 124.829 86.3515 121.433C82.1271 118.037 79.0209 112.942 77.033 106.15L60.6324 112.611C62.9517 120.563 66.5548 126.982 71.4419 131.869C76.3289 136.756 82.6655 140.111 90.4516 141.933V154.855ZM99.3974 184.674C85.6474 184.674 72.7257 182.065 60.6324 176.847C48.5391 171.628 38.0195 164.546 29.0737 155.6C20.128 146.655 13.0459 136.135 7.82754 124.042C2.60918 111.948 0 99.0268 0 85.2768C0 71.5269 2.60918 58.6052 7.82754 46.5119C13.0459 34.4185 20.128 23.899 29.0737 14.9532C38.0195 6.00744 48.5391 -1.07462 60.6324 -6.29299C72.7257 -11.5113 85.6474 -14.1205 99.3974 -14.1205C113.147 -14.1205 126.069 -11.5113 138.162 -6.29299C150.256 -1.07462 160.775 6.00744 169.721 14.9532C178.667 23.899 185.749 34.4185 190.967 46.5119C196.186 58.6052 198.795 71.5269 198.795 85.2768C198.795 99.0268 196.186 111.948 190.967 124.042C185.749 136.135 178.667 146.655 169.721 155.6C160.775 164.546 150.256 171.628 138.162 176.847C126.069 182.065 113.147 184.674 99.3974 184.674ZM99.3974 164.795C121.596 164.795 140.399 157.091 155.805 141.685C171.212 126.278 178.915 107.476 178.915 85.2768C178.915 63.0781 171.212 44.2754 155.805 28.8688C140.399 13.4622 121.596 5.75895 99.3974 5.75895C77.1986 5.75895 58.396 13.4622 42.9894 28.8688C27.5828 44.2754 19.8795 63.0781 19.8795 85.2768C19.8795 107.476 27.5828 126.278 42.9894 141.685C58.396 157.091 77.1986 164.795 99.3974 164.795Z" fill="#E8EAE9" fill-opacity="0.29"/>
</svg>
