<svg width="125" height="149" viewBox="0 0 125 149" fill="none" xmlns="http://www.w3.org/2000/svg">
<path d="M66.75 66.75C60.5694 66.75 55.316 64.5868 50.9896 60.2604C46.6632 55.934 44.5 50.6806 44.5 44.5C44.5 38.3194 46.6632 33.066 50.9896 28.7396C55.316 24.4132 60.5694 22.25 66.75 22.25C72.9306 22.25 78.184 24.4132 82.5104 28.7396C86.8368 33.066 89 38.3194 89 44.5C89 50.6806 86.8368 55.934 82.5104 60.2604C78.184 64.5868 72.9306 66.75 66.75 66.75ZM14.8333 89C10.7542 89 7.26215 87.5476 4.35729 84.6427C1.45243 81.7379 0 78.2458 0 74.1667V14.8333C0 10.7542 1.45243 7.26215 4.35729 4.35729C7.26215 1.45243 10.7542 0 14.8333 0H118.667C122.746 0 126.238 1.45243 129.143 4.35729C132.048 7.26215 133.5 10.7542 133.5 14.8333V74.1667C133.5 78.2458 132.048 81.7379 129.143 84.6427C126.238 87.5476 122.746 89 118.667 89H14.8333ZM29.6667 74.1667H103.833C103.833 70.0875 105.286 66.5955 108.191 63.6906C111.095 60.7858 114.587 59.3333 118.667 59.3333V29.6667C114.587 29.6667 111.095 28.2142 108.191 25.3094C105.286 22.4045 103.833 18.9125 103.833 14.8333H29.6667C29.6667 18.9125 28.2142 22.4045 25.3094 25.3094C22.4045 28.2142 18.9125 29.6667 14.8333 29.6667V59.3333C18.9125 59.3333 22.4045 60.7858 25.3094 63.6906C28.2142 66.5955 29.6667 70.0875 29.6667 74.1667ZM66.75 148.333L96.4167 118.667L86.0333 108.283L74.1667 120.15V96.4167H59.3333V120.15L47.4667 108.283L37.0833 118.667L66.75 148.333Z" fill="#E8EAE9" fill-opacity="0.29"/>
</svg>
