<svg width="29" height="34" viewBox="0 0 29 34" fill="none" xmlns="http://www.w3.org/2000/svg">
<path d="M14.25 18.2083C12.7194 18.2083 11.4132 17.6674 10.3313 16.5854C9.24931 15.5035 8.70833 14.1972 8.70833 12.6667C8.70833 11.1361 9.24931 9.82986 10.3313 8.74792C11.4132 7.66597 12.7194 7.125 14.25 7.125C15.7806 7.125 17.0868 7.66597 18.1688 8.74792C19.2507 9.82986 19.7917 11.1361 19.7917 12.6667C19.7917 14.1972 19.2507 15.5035 18.1688 16.5854C17.0868 17.6674 15.7806 18.2083 14.25 18.2083ZM14.25 15.0417C14.9097 15.0417 15.4705 14.8108 15.9323 14.349C16.3941 13.8872 16.625 13.3264 16.625 12.6667C16.625 12.0069 16.3941 11.4462 15.9323 10.9844C15.4705 10.5226 14.9097 10.2917 14.25 10.2917C13.5903 10.2917 13.0295 10.5226 12.5677 10.9844C12.1059 11.4462 11.875 12.0069 11.875 12.6667C11.875 13.3264 12.1059 13.8872 12.5677 14.349C13.0295 14.8108 13.5903 15.0417 14.25 15.0417ZM14.25 33.25L0 24.5417V8.70833L14.25 0L28.5 8.70833V24.5417L14.25 33.25ZM14.25 29.5688L20.0688 25.9667C19.1715 25.4917 18.2281 25.1354 17.2385 24.8979C16.249 24.6604 15.2528 24.5417 14.25 24.5417C13.2472 24.5417 12.251 24.6604 11.2615 24.8979C10.2719 25.1354 9.32847 25.4917 8.43125 25.9667L14.25 29.5688ZM5.38333 24.1063C6.70278 23.209 8.11458 22.5295 9.61875 22.0677C11.1229 21.6059 12.6667 21.375 14.25 21.375C15.8333 21.375 17.3771 21.6059 18.8813 22.0677C20.3854 22.5295 21.7972 23.209 23.1167 24.1063L25.3333 22.8V10.4896L14.25 3.72083L3.16667 10.4896V22.8L5.38333 24.1063Z" fill="#D9D9D9"/>
</svg>
